<?xml version="1.0" encoding="UTF-8" standalone="no"?>
<svg
   xmlns:dc="http://purl.org/dc/elements/1.1/"
   xmlns:cc="http://creativecommons.org/ns#"
   xmlns:rdf="http://www.w3.org/1999/02/22-rdf-syntax-ns#"
   xmlns:svg="http://www.w3.org/2000/svg"
   xmlns="http://www.w3.org/2000/svg"
   xmlns:sodipodi="http://sodipodi.sourceforge.net/DTD/sodipodi-0.dtd"
   xmlns:inkscape="http://www.inkscape.org/namespaces/inkscape"
   inkscape:export-ydpi="90"
   inkscape:export-xdpi="90"
   inkscape:export-filename="/home/p____a____s/Desktop/icon/icon-google-keep.png"
   version="1.1"
   id="svg966"
   width="225"
   height="225"
   viewBox="0 0 225 225"
   sodipodi:docname="keep.svg"
   inkscape:version="1.0 (1.0+r73+1)">
  <metadata
     id="metadata972">
    <rdf:RDF>
      <cc:Work
         rdf:about="">
        <dc:format>image/svg+xml</dc:format>
        <dc:type
           rdf:resource="http://purl.org/dc/dcmitype/StillImage" />
        <dc:title />
      </cc:Work>
    </rdf:RDF>
  </metadata>
  <defs
     id="defs970" />
  <sodipodi:namedview
     inkscape:document-rotation="0"
     pagecolor="#ffffff"
     bordercolor="#666666"
     borderopacity="1"
     objecttolerance="10"
     gridtolerance="10"
     guidetolerance="10"
     inkscape:pageopacity="0"
     inkscape:pageshadow="2"
     inkscape:window-width="1366"
     inkscape:window-height="743"
     id="namedview968"
     showgrid="false"
     inkscape:pagecheckerboard="true"
     inkscape:zoom="2.0935345"
     inkscape:cx="23.65031"
     inkscape:cy="112.23774"
     inkscape:window-x="0"
     inkscape:window-y="0"
     inkscape:window-maximized="1"
     inkscape:current-layer="g974" />
  <g
     inkscape:groupmode="layer"
     inkscape:label="Image"
     id="g974">
    <g
       id="g1692"
       transform="matrix(0.99128204,0,0,0.99128204,1.4076567,3.2958574)"
       style="fill:#080808;fill-opacity:1;stroke:#080808;stroke-width:9.64178;stroke-miterlimit:4;stroke-dasharray:none;stroke-opacity:1">
      <path
         sodipodi:nodetypes="ccccc"
         id="path978"
         d="M 111.07165,4.3150642 C 187.37949,3.1096347 219.9942,30.70959 219.46771,116.78401 219.6126,180.80391 191.887,217.03362 113.99242,216.89183 31.128252,217.1489 4.3985753,182.814 4.9872626,109.17992 4.4511384,30.765215 40.463917,3.5317584 111.07165,4.3150642 Z"
         style="fill:#080808;fill-opacity:1;stroke:#080808;stroke-width:9.64178;stroke-linecap:butt;stroke-linejoin:miter;stroke-miterlimit:4;stroke-dasharray:none;stroke-opacity:1" />
    </g>
    <path
       style="fill:#ffffff;fill-opacity:1;stroke:none;stroke-width:0;stroke-linecap:round;stroke-linejoin:bevel;stroke-miterlimit:4;stroke-dasharray:none;stroke-opacity:0"
       d="m 112.56624,180.08309 c -2.36474,-1.24299 -2.89034,-2.38932 -3.0371,-6.62382 l -0.13052,-3.76634 -2.25147,-0.25472 c -4.22011,-0.47745 -9.288918,-3.75439 -11.725608,-7.58049 -0.49368,-0.77518 -1.249534,-2.45412 -1.679675,-3.73096 -0.723727,-2.14836 -0.782068,-3.26069 -0.782068,-14.91119 v -12.58965 l -2.994228,-1.98037 c -1.646825,-1.08921 -4.387932,-3.37409 -6.091359,-5.07751 -19.790553,-19.79054 -16.67885,-52.387174 6.477713,-67.857277 24.992445,-16.696577 58.885535,-3.938911 66.971765,25.208773 4.1981,15.132526 -0.22166,31.208584 -11.72213,42.637084 -2.03164,2.01892 -4.8168,4.40976 -6.18925,5.31299 l -2.49539,1.64224 -0.19195,13.30641 -0.19195,13.3064 -1.22905,2.59463 c -2.44657,5.1649 -7.68549,9.14408 -12.8009,9.72284 l -2.28601,0.25862 -7.1e-4,3.30959 c -6.9e-4,3.6641 -0.61078,5.40603 -2.33607,6.66956 -1.4522,1.06354 -3.72918,1.23629 -5.31414,0.40319 z m 10.26124,-21.77023 c 0.57017,-0.29667 1.46856,-1.00114 1.99643,-1.56551 0.88141,-0.94233 0.97037,-1.36844 1.08971,-5.21919 l 0.12995,-4.19306 H 114.84238 103.6412 l 0.12995,4.19876 c 0.12565,4.06006 0.16799,4.23893 1.28166,5.41455 0.63344,0.66869 1.49723,1.35965 1.91952,1.53548 0.42229,0.17583 3.92921,0.33062 7.79314,0.34401 5.32421,0.0184 7.27635,-0.10627 8.06201,-0.51504 z m 3.15658,-26.42995 c 0.0105,-6.33225 0.5121,-7.74312 3.31546,-9.32535 9.66916,-5.45729 15.24416,-12.28889 17.84476,-21.86692 1.18888,-4.378679 1.19012,-12.513427 0.003,-16.871096 C 144.8097,75.242427 138.87821,67.548994 131.35059,63.330659 120.58389,57.297247 106.4878,57.68681 96.517729,64.293308 86.54013,70.9048 80.921177,82.064543 81.574305,93.972303 c 0.27731,5.055922 1.030606,8.047607 3.185303,12.650287 3.315621,7.08257 7.456386,11.30427 15.625842,15.93129 2.80357,1.58789 3.30497,2.99873 3.31547,9.32903 l 0.009,5.08674 h 11.13324 11.13324 l 0.009,-5.08674 z"
       id="path1992" />
    <path
       id="path10"
       d="m 103.84744,131.41375 c -0.22038,-6.58979 -0.59335,-7.43869 -4.2305,-9.62874 -7.204447,-4.33807 -11.092668,-8.34582 -14.203045,-14.63969 -1.160783,-2.34885 -2.424278,-5.59754 -2.807767,-7.21932 -0.931553,-3.939539 -0.937505,-11.312276 -0.01221,-15.112568 3.880648,-15.938095 18.042008,-26.485603 34.101328,-25.398963 13.87778,0.939032 25.06957,9.517161 29.66784,22.739394 1.3859,3.985123 1.7872,12.407593 0.81021,17.004684 -1.94261,9.140703 -6.79291,15.819873 -15.86523,21.847433 -5.29485,3.51786 -5.41839,3.76322 -5.45234,10.82901 l -0.0238,4.94957 h -10.90242 -10.90244 z"
       style="fill:#ffffff;stroke:#ffffff;stroke-width:7.64617;stroke-linecap:square;stroke-miterlimit:4;stroke-dasharray:none;stroke-opacity:1;paint-order:fill markers stroke" />
  </g>
</svg>
