<?xml version="1.0" encoding="UTF-8" standalone="no"?>
<svg
   xmlns:dc="http://purl.org/dc/elements/1.1/"
   xmlns:cc="http://creativecommons.org/ns#"
   xmlns:rdf="http://www.w3.org/1999/02/22-rdf-syntax-ns#"
   xmlns:svg="http://www.w3.org/2000/svg"
   xmlns="http://www.w3.org/2000/svg"
   xmlns:sodipodi="http://sodipodi.sourceforge.net/DTD/sodipodi-0.dtd"
   xmlns:inkscape="http://www.inkscape.org/namespaces/inkscape"
   inkscape:version="1.0 (1.0+r73+1)"
   sodipodi:docname="users.svg"
   viewBox="0 0 225 225"
   height="225"
   width="225"
   id="svg966"
   version="1.1"
   inkscape:export-filename="/home/p____a____s/Desktop/icon/icon-google-keep.png"
   inkscape:export-xdpi="90"
   inkscape:export-ydpi="90">
  <metadata
     id="metadata972">
    <rdf:RDF>
      <cc:Work
         rdf:about="">
        <dc:format>image/svg+xml</dc:format>
        <dc:type
           rdf:resource="http://purl.org/dc/dcmitype/StillImage" />
        <dc:title />
      </cc:Work>
    </rdf:RDF>
  </metadata>
  <defs
     id="defs970" />
  <sodipodi:namedview
     inkscape:current-layer="g844"
     inkscape:window-maximized="1"
     inkscape:window-y="0"
     inkscape:window-x="0"
     inkscape:cy="112.23774"
     inkscape:cx="23.65031"
     inkscape:zoom="2.0109819"
     inkscape:pagecheckerboard="true"
     showgrid="false"
     id="namedview968"
     inkscape:window-height="743"
     inkscape:window-width="1366"
     inkscape:pageshadow="2"
     inkscape:pageopacity="0"
     guidetolerance="10"
     gridtolerance="10"
     objecttolerance="10"
     borderopacity="1"
     bordercolor="#666666"
     pagecolor="#ffffff"
     inkscape:document-rotation="0" />
  <g
     id="g974"
     inkscape:label="Image"
     inkscape:groupmode="layer">
    <g
       style="fill:#080808;fill-opacity:1;stroke:#080808;stroke-width:9.64178;stroke-miterlimit:4;stroke-dasharray:none;stroke-opacity:1"
       transform="matrix(0.99128204,0,0,0.99128204,1.4076567,3.2958574)"
       id="g1692">
      <path
         style="fill:#080808;fill-opacity:1;stroke:#080808;stroke-width:9.64178;stroke-linecap:butt;stroke-linejoin:miter;stroke-miterlimit:4;stroke-dasharray:none;stroke-opacity:1"
         d="M 111.07165,4.3150642 C 187.37949,3.1096347 219.9942,30.70959 219.46771,116.78401 219.6126,180.80391 191.887,217.03362 113.99242,216.89183 31.128252,217.1489 4.3985753,182.814 4.9872626,109.17992 4.4511384,30.765215 40.463917,3.5317584 111.07165,4.3150642 Z"
         id="path978"
         sodipodi:nodetypes="ccccc" />
    </g>
    <g
       id="g844"
       transform="matrix(0.8468069,0,0,0.8468069,170.02398,8.6678743)">
      <path
         style="fill:#ffffff;stroke-width:0.290662"
         d="m -66.176415,115.29484 c 9.84845,0 18.37644,-3.53223 25.34438,-10.50131 6.96795,-6.967954 10.50018,-15.493664 10.50018,-25.343252 0,-9.846187 -3.53223,-18.373036 -10.50131,-25.343251 -6.96908,-6.966812 -15.49593,-10.499041 -25.34325,-10.499041 -9.84959,0 -18.37531,3.532229 -25.34325,10.500174 -6.967951,6.967947 -10.501315,15.494795 -10.501315,25.342118 0,9.849588 3.533364,18.376438 10.502445,25.344382 6.96909,6.96682 15.49593,10.50018 25.34212,10.50018 z m 0,0"
         id="path2" />
      <path
         style="fill:#ffffff;stroke-width:0.290662"
         d="m -3.4580849,160.40444 c -0.200966,-2.89981 -0.607442,-6.06303 -1.205794,-9.40338 -0.604035,-3.36532 -1.381782,-6.54671 -2.31281,-9.45447 -0.9616846,-3.0054 -2.2696666,-5.97334 -3.8864761,-8.81751 -1.67811,-2.95204 -3.64917,-5.52259 -5.86093,-7.63783 -2.3128,-2.21289 -5.14449,-3.99207 -8.41898,-5.28983 -3.26314,-1.29095 -6.87939,-1.94494 -10.7477,-1.94494 -1.51916,0 -2.98837,0.62333 -5.82573,2.47063 -1.74624,1.13881 -3.78883,2.45587 -6.06871,3.91259 -1.94948,1.24213 -4.59042,2.40591 -7.85242,3.45956 -3.18253,1.02981 -6.41387,1.55209 -9.60321,1.55209 -3.18933,0 -6.41955,-0.52228 -9.60548,-1.55209 -3.2586,-1.05252 -5.89954,-2.2163 -7.84675,-3.45843 -2.25831,-1.44309 -4.30203,-2.76015 -6.07438,-3.91486 -2.83396,-1.84729 -4.30431,-2.47063 -5.82347,-2.47063 -3.869441,0 -7.484555,0.65513 -10.746555,1.94722 -3.27222,1.29549 -6.10504,3.07466 -8.42013,5.28982 -2.21062,2.11639 -4.18281,4.6858 -5.85865,7.6367 -1.61568,2.84417 -2.92366,5.81097 -3.88648,8.81864 -0.92989,2.90776 -1.70764,6.08802 -2.31167,9.45334 -0.59836,3.3358 -1.00483,6.50016 -1.2058,9.40679 -0.19756,2.84758 -0.29747,5.80303 -0.29747,8.78799 0,7.7684 2.46949,14.05738 7.33922,18.69548 4.80955,4.5768 11.17347,6.89869 18.91235,6.89869 h 71.657335 c 7.73889,0 14.10053,-2.32076 18.91122,-6.89869 4.8708561,-4.63469 7.3403501,-10.92481 7.3403501,-18.69662 -9.67e-4,-2.99859 -0.102185,-5.9563 -0.30088,-8.79026 z m 0,0"
         id="path4" />
    </g>
  </g>
</svg>
